# xmcd CD database file
#
# Track frame offsets:
#	150
#	13178
#	27538
#	42678
#	54175
#	68258
#	86440
#	101403
#	122050
#	142103
#	157603
#	176755
#	193943
#	213695
#	226480
#	237255
#	250370
#	262033
#	276355
#
# Disc length: 3859 seconds
#
# Revision: 0
# Processed by: cddbd v1.5.1PL0 Copyright (c) Steve Scherf et al.
# Submitted via: CDex 1.51
#
DISCID=150f1113
DTITLE=Various Artist - SUPER HERO CHRONICLE スーパーロボット 主題歌・挿入歌 大全集?(DSIC3)
DYEAR=2004
DGENRE=Anime
TTITLE0=水木一郎、ザ・ブレッスンフォー/コン・バトラーVのテーマ
TTITLE1=水木一郎、コロムビアゆりかご会/行くぞ! 正義の戦いに
TTITLE2=水木一郎、こおろぎ'73/豹馬もの思い
TTITLE3=水木一郎、コロムビアゆりかご会/行け！コン・バトラーV
TTITLE4=堀江美都子、こおろぎ'73、コロムビアゆりかご会/ボルテス?の歌
TTITLE5=水木一郎、こおろぎ'73/父をもとめて
TTITLE6=ささきいさお、コロムビアゆりかご会/立て！闘将ダイモス
TTITLE7=かおりくみこ、大倉正丈/愛の神話
TTITLE8=佐々木功/おれは生きている
TTITLE9=神代ユースコーラス、こおろぎ'73/心の握手をさあ君も
TTITLE10=かおりくみこ、大倉正丈、神代ユースコーラス/二人の祈り
TTITLE11=ささきいさお、たかの羽児童合唱団/ぼくらのダイモス
TTITLE12=かおりくみこ、大倉正丈/エリカのバラード
TTITLE13=堀江美都子、こおろぎ'73、ザ・チャープス/宇宙魔神ダイケンゴーの歌
TTITLE14=Mojo、ザ・チャープス/宇宙の男ライガー
TTITLE15=堀江美都子、こおろぎ'73、コロムビアゆりかご会/ダルタニアスの歌
TTITLE16=こおろぎ'73/剣人・男意気
TTITLE17=水木一郎、こおろぎ'73、コロムビアゆりかご会/がんばれ！宇宙の戦士
TTITLE18=かおりくみこ、こおろぎ'73、コロムビアゆりかご会/レッド・ブルー・イエロー
EXTD=YEAR: 2004
EXTT0=
EXTT1=
EXTT2=
EXTT3=
EXTT4=
EXTT5=
EXTT6=
EXTT7=
EXTT8=
EXTT9=
EXTT10=
EXTT11=
EXTT12=
EXTT13=
EXTT14=
EXTT15=
EXTT16=
EXTT17=
EXTT18=
PLAYORDER=
